<svg width="200" height="200" viewBox="0 0 200 200" fill="none" xmlns="http://www.w3.org/2000/svg">
<mask id="mask0" mask-type="alpha" maskUnits="userSpaceOnUse" x="0" y="0" width="200" height="200">
<circle cx="100" cy="100" r="100" fill="#C4C4C4"/>
<circle cx="100" cy="100" r="100" fill="url(#paint0_linear)"/>
</mask>
<g mask="url(#mask0)">
<circle cx="100" cy="100" r="100" fill="white"/>
<path fill-rule="evenodd" clip-rule="evenodd" d="M183.648 165.794C180.906 162.302 179.271 157.9 179.271 153.115C179.271 141.769 188.469 132.571 199.815 132.571C208.929 132.571 216.657 138.505 219.345 146.72C223.326 145.209 226.205 144.112 226.205 144.112V151.422C226.205 153.345 224.666 162.579 215.818 167.58C208.908 171.485 207.573 178.845 206.481 184.864C206.175 186.553 205.888 188.137 205.502 189.509H194.825H193.651C192.673 186.182 190.305 178.591 188.662 174.834C187.488 172.151 185.347 168.511 183.648 165.794Z" fill="#F55BA4"/>
<path fill-rule="evenodd" clip-rule="evenodd" d="M119.438 168.606C123.758 164.84 126.488 159.296 126.488 153.115C126.488 141.769 117.29 132.571 105.943 132.571C94.5966 132.571 85.3984 141.769 85.3984 153.115C85.3984 157.907 87.0387 162.315 89.7882 165.809C91.4852 168.525 93.6207 172.157 94.7921 174.834C96.4357 178.591 98.8032 186.183 99.7815 189.509H100.955H112.402C114.163 183.248 117.978 170.373 119.152 168.964C119.24 168.859 119.336 168.739 119.438 168.606Z" fill="#F55BA4"/>
<path d="M46.1592 108.231C46.1592 79.6035 69.3661 56.3966 97.9933 56.3966H120.41H185.445C224.105 56.3966 255.445 87.7367 255.445 126.397V144.112L240.826 159.501L98.1981 160.064C69.4911 160.178 46.1592 136.938 46.1592 108.231V108.231Z" fill="#FFBF8F"/>
<circle cx="86.5541" cy="91.4059" r="12.6957" fill="white"/>
<circle cx="48.4664" cy="117.182" r="18.4664" fill="#F55BA4"/>
<circle cx="40.7709" cy="116.412" r="4.6166" fill="#190E4F"/>
<circle cx="55.391" cy="116.412" r="4.6166" fill="#190E4F"/>
<circle cx="87.7074" cy="94.8683" r="4.6166" fill="#190E4F"/>
<path fill-rule="evenodd" clip-rule="evenodd" d="M146.362 168.613C150.686 164.847 153.419 159.3 153.419 153.115C153.419 141.769 144.221 132.571 132.875 132.571C121.528 132.571 112.33 141.769 112.33 153.115C112.33 157.899 113.965 162.302 116.707 165.793C118.406 168.511 120.547 172.151 121.721 174.834C123.365 178.591 125.732 186.183 126.711 189.509H127.885H139.331C141.092 183.248 144.907 170.373 146.081 168.964C146.167 168.861 146.261 168.743 146.362 168.613Z" fill="#FFBF8F"/>
<path d="M107.775 34.8025C106.624 41.3326 102.791 46.7377 99.322 50.4597C98.3267 51.5276 97.829 52.0615 96.4066 52.5644C94.9595 53.076 92.0179 52.6588 90.7701 51.7649C89.5436 50.8863 89.2118 50.2305 88.5482 48.9191C86.1296 44.139 83.8594 37.5067 85.043 30.7942C86.2265 24.0817 90.6282 18.6258 94.5359 14.9613C95.608 13.9558 96.1441 13.4531 97.5971 13.047C99.0754 12.6338 101.982 13.2477 103.167 14.2235C104.332 15.1825 104.617 15.8545 105.187 17.1984C107.174 21.8824 108.927 28.2724 107.775 34.8025Z" fill="#FFBF8F"/>
<path d="M70.1074 35.2734C72.3753 41.5044 71.7586 48.1017 70.6152 53.0596C70.2872 54.4821 70.1232 55.1933 69.1428 56.34C68.1453 57.5067 65.3892 58.6161 63.8617 58.4659C62.3602 58.3182 61.745 57.9162 60.5145 57.1122C56.0299 54.1819 50.7477 49.5733 48.4164 43.1683C46.0852 36.7633 47.1692 29.8375 48.7211 24.7101C49.1469 23.3033 49.3598 22.5999 50.4151 21.5216C51.4887 20.4247 54.3131 19.503 55.8271 19.7555C57.3153 20.0038 57.8981 20.4432 59.0637 21.322C63.1264 24.3851 67.8395 29.0425 70.1074 35.2734Z" fill="#FFBF8F"/>
<path d="M74.285 132.011C74.285 132.011 80.9157 129.119 89.0952 125.55C97.2746 121.982 103.905 119.089 103.905 119.089C107.474 127.269 103.735 136.792 95.556 140.36C87.3766 143.929 77.8532 140.191 74.285 132.011Z" fill="white"/>
</g>
<defs>
<linearGradient id="paint0_linear" x1="100" y1="0" x2="100" y2="200" gradientUnits="userSpaceOnUse">
<stop stop-color="white"/>
<stop offset="1" stop-color="white" stop-opacity="0"/>
</linearGradient>
</defs>
</svg>
