<svg width="322" height="236" viewBox="0 0 322 236" fill="none" xmlns="http://www.w3.org/2000/svg">
<path fill-rule="evenodd" clip-rule="evenodd" d="M199.694 201.185C196.127 196.646 194 190.922 194 184.701C194 169.954 205.954 158 220.701 158C232.546 158 242.589 165.713 246.083 176.39C251.258 174.425 255 173 255 173V182.5C255 185 253 197 241.5 203.5C232.52 208.576 230.785 218.141 229.366 225.964C228.968 228.159 228.594 230.217 228.093 232H214.216H212.691C211.419 227.677 208.342 217.81 206.206 212.928C204.682 209.444 201.901 204.716 199.694 201.185Z" fill="#F55BA4"/>
<path fill-rule="evenodd" clip-rule="evenodd" d="M116.232 204.841C121.851 199.946 125.402 192.738 125.402 184.701C125.402 169.954 113.448 158 98.701 158C83.9545 158 72 169.954 72 184.701C72 190.922 74.1274 196.646 77.6945 201.185C79.9013 204.716 82.6818 209.444 84.2062 212.928C86.3423 217.81 89.4192 227.677 90.6907 232H92.2165H107.093C109.381 223.863 114.34 207.13 115.866 205.299C115.978 205.164 116.101 205.011 116.232 204.841Z" fill="#F55BA4"/>
<path d="M21 119C21 85.8629 47.8629 59 81 59H223C261.66 59 293 90.3401 293 129V173L274 193L81.2372 193.762C48.0077 193.893 21 166.992 21 133.762V119Z" fill="#FFBF8F"/>
<circle cx="24" cy="138" r="24" fill="#F55BA4"/>
<circle cx="14" cy="137" r="6" fill="#190E4F"/>
<circle cx="33" cy="137" r="6" fill="#190E4F"/>
<path fill-rule="evenodd" clip-rule="evenodd" d="M151.232 204.841C156.851 199.946 160.402 192.738 160.402 184.701C160.402 169.954 148.448 158 133.701 158C118.954 158 107 169.954 107 184.701C107 190.922 109.127 196.646 112.694 201.185C114.901 204.716 117.682 209.444 119.206 212.928C121.342 217.81 124.419 227.677 125.691 232H127.216H142.093C144.381 223.863 149.34 207.13 150.866 205.299C150.978 205.164 151.101 205.011 151.232 204.841Z" fill="#FFBF8F"/>
<path d="M103.08 49.9351C101.584 58.422 96.6027 65.4467 92.094 70.2841C90.8005 71.672 90.1537 72.3659 88.305 73.0195C86.4242 73.6844 82.6012 73.1421 80.9795 71.9804C79.3855 70.8385 78.9542 69.9862 78.0918 68.2818C74.9483 62.0693 71.9979 53.4496 73.5361 44.7257C75.0744 36.0017 80.7951 28.9109 85.8737 24.1483C87.2671 22.8416 87.9638 22.1882 89.8523 21.6603C91.7735 21.1233 95.5514 21.9213 97.0914 23.1894C98.605 24.4358 98.9755 25.3092 99.7164 27.0558C102.299 33.1434 104.577 41.4482 103.08 49.9351Z" fill="#FFBF8F"/>
<path d="M54.1252 50.5472C57.0727 58.6452 56.2712 67.2194 54.7853 73.663C54.3589 75.5118 54.1458 76.4361 52.8715 77.9265C51.5752 79.4428 47.9932 80.8846 46.0079 80.6894C44.0565 80.4975 43.2569 79.975 41.6578 78.9301C35.8293 75.1217 28.9642 69.132 25.9344 60.8078C22.9046 52.4835 24.3135 43.4823 26.3304 36.8184C26.8838 34.9901 27.1605 34.0759 28.532 32.6745C29.9273 31.2489 33.5981 30.051 35.5657 30.3792C37.4998 30.7018 38.2573 31.2729 39.7722 32.4151C45.0524 36.396 51.1777 42.4491 54.1252 50.5472Z" fill="#FFBF8F"/>
<path d="M274 99.5C276 91.5 281.5 84.5 300 81.5C308.038 80.1966 291 63.5 307 60" stroke="#FFBF8F" stroke-width="12" stroke-linecap="round"/>
<path d="M102 169C102 169 92.598 169 81 169C69.402 169 60 169 60 169C60 157.402 69.402 148 81 148C92.598 148 102 157.402 102 169Z" fill="white"/>
<path d="M218.955 106.806C217.142 104.992 217.142 102.052 218.955 100.239L222.239 96.9552C224.052 95.1417 226.992 95.1417 228.806 96.9552L253.433 121.582C255.246 123.395 255.246 126.336 253.433 128.149L250.149 131.433C248.336 133.246 245.395 133.246 243.582 131.433L218.955 106.806Z" fill="#FF9647"/>
<path d="M228.806 131.433C226.992 133.246 224.052 133.246 222.239 131.433L218.955 128.149C217.142 126.336 217.142 123.395 218.955 121.582L243.582 96.9552C245.395 95.1417 248.336 95.1417 250.149 96.9552L253.433 100.239C255.246 102.052 255.246 104.992 253.433 106.806L228.806 131.433Z" fill="#FF9647"/>
<circle cx="76.5" cy="97.5" r="16.5" fill="white"/>
<circle cx="77" cy="97" r="9" fill="#190E4F"/>
<path fill-rule="evenodd" clip-rule="evenodd" d="M237.694 201.185C234.127 196.646 232 190.922 232 184.701C232 169.954 243.954 158 258.701 158C270.546 158 280.589 165.713 284.083 176.39C289.258 174.425 293 173 293 173V182.5C293 185 291 197 279.5 203.5C270.52 208.576 268.785 218.141 267.366 225.964C266.968 228.159 266.594 230.217 266.093 232H252.216H250.691C249.419 227.677 246.342 217.81 244.206 212.928C242.682 209.444 239.901 204.716 237.694 201.185Z" fill="#FFBF8F"/>
</svg>
