<svg width="319" height="232" viewBox="0 0 319 232" fill="none" xmlns="http://www.w3.org/2000/svg">
<path fill-rule="evenodd" clip-rule="evenodd" d="M199.694 201.185C196.127 196.646 194 190.922 194 184.701C194 169.954 205.954 158 220.701 158C232.546 158 242.589 165.713 246.083 176.39C251.258 174.425 255 173 255 173V182.5C255 185 253 197 241.5 203.5C232.52 208.576 230.785 218.141 229.366 225.964C228.968 228.159 228.594 230.217 228.093 232H214.216H212.691C211.419 227.677 208.342 217.81 206.206 212.928C204.682 209.444 201.901 204.716 199.694 201.185Z" fill="#F55BA4"/>
<path fill-rule="evenodd" clip-rule="evenodd" d="M116.232 204.841C121.851 199.946 125.402 192.738 125.402 184.701C125.402 169.954 113.448 158 98.701 158C83.9545 158 72 169.954 72 184.701C72 190.922 74.1274 196.646 77.6945 201.185C79.9013 204.716 82.6818 209.444 84.2062 212.928C86.3423 217.81 89.4192 227.677 90.6907 232H92.2165H107.093C109.381 223.863 114.34 207.13 115.866 205.299C115.978 205.164 116.101 205.011 116.232 204.841Z" fill="#F55BA4"/>
<path d="M21 119C21 85.8629 47.8629 59 81 59H223C261.66 59 293 90.3401 293 129V173L274 193L81.2372 193.762C48.0077 193.893 21 166.992 21 133.762V119Z" fill="#FFBF8F"/>
<circle cx="73.5" cy="104.5" r="16.5" fill="white"/>
<circle cx="24" cy="138" r="24" fill="#F55BA4"/>
<circle cx="14" cy="137" r="6" fill="#190E4F"/>
<circle cx="33" cy="137" r="6" fill="#190E4F"/>
<circle cx="75" cy="109" r="6" fill="#190E4F"/>
<path fill-rule="evenodd" clip-rule="evenodd" d="M151.232 204.841C156.851 199.946 160.402 192.738 160.402 184.701C160.402 169.954 148.448 158 133.701 158C118.954 158 107 169.954 107 184.701C107 190.922 109.127 196.646 112.694 201.185C114.901 204.716 117.682 209.444 119.206 212.928C121.342 217.81 124.419 227.677 125.691 232H127.216H142.093C144.381 223.863 149.34 207.13 150.866 205.299C150.978 205.164 151.101 205.011 151.232 204.841Z" fill="#FFBF8F"/>
<path fill-rule="evenodd" clip-rule="evenodd" d="M237.694 201.185C234.127 196.646 232 190.922 232 184.701C232 169.954 243.954 158 258.701 158C270.546 158 280.589 165.713 284.083 176.39C289.258 174.425 293 173 293 173V182.5C293 185 291 197 279.5 203.5C270.52 208.576 268.785 218.141 267.366 225.964C266.968 228.159 266.594 230.217 266.093 232H252.216H250.691C249.419 227.677 246.342 217.81 244.206 212.928C242.682 209.444 239.901 204.716 237.694 201.185Z" fill="#FFBF8F"/>
<path d="M101.08 30.9351C99.5839 39.422 94.6027 46.4467 90.094 51.2841C88.8005 52.672 88.1537 53.3659 86.305 54.0195C84.4242 54.6844 80.6012 54.1421 78.9795 52.9804C77.3855 51.8385 76.9542 50.9862 76.0918 49.2818C72.9483 43.0693 69.9979 34.4496 71.5361 25.7257C73.0744 17.0017 78.7951 9.91093 83.8737 5.14829C85.2671 3.84157 85.9638 3.18822 87.8523 2.66035C89.7735 2.12332 93.5514 2.9213 95.0914 4.18939C96.605 5.43585 96.9755 6.30915 97.7164 8.05577C100.299 14.1434 102.577 22.4482 101.08 30.9351Z" fill="#FFBF8F"/>
<path d="M52.1252 31.5472C55.0727 39.6452 54.2712 48.2194 52.7853 54.663C52.3589 56.5118 52.1458 57.4362 50.8715 58.9265C49.5752 60.4427 45.9932 61.8846 44.0079 61.6894C42.0565 61.4975 41.2569 60.975 39.6578 59.9301C33.8293 56.1217 26.9642 50.132 23.9344 41.8078C20.9046 33.4835 22.3135 24.4823 24.3304 17.8184C24.8838 15.9901 25.1605 15.0759 26.532 13.6745C27.9273 12.2489 31.5981 11.051 33.5657 11.3792C35.4998 11.7018 36.2573 12.2729 37.7722 13.4151C43.0524 17.396 49.1777 23.4491 52.1252 31.5472Z" fill="#FFBF8F"/>
<path d="M274 99.5C275.59 93.142 288.085 86.3516 296.958 80.7398M296.958 80.7398C299.25 79.2906 301.299 77.92 302.857 76.6557C306.681 73.5521 307.547 69.3459 306.429 65.5389C305.357 61.8911 301.188 59.2312 297.5 58.3667C293.044 57.3224 288.571 58.3978 286.429 63.0286C285.627 64.7607 284.691 69.9145 288.571 75.2213C290.037 77.2261 293.3 79.1181 296.958 80.7398ZM296.958 80.7398C303.996 83.8596 312.5 85.9795 312.5 85.9795" stroke="#FFBF8F" stroke-width="12" stroke-linecap="round"/>
<path d="M57.5535 157.273C57.5535 157.273 66.1712 153.513 76.8017 148.876C87.4322 144.238 96.0499 140.479 96.0499 140.479C100.687 151.109 95.8291 163.487 85.1986 168.124C74.5681 172.762 62.191 167.903 57.5535 157.273Z" fill="white"/>
</svg>
