<svg width="314" height="222" viewBox="0 0 314 222" fill="none" xmlns="http://www.w3.org/2000/svg">
<path fill-rule="evenodd" clip-rule="evenodd" d="M199.694 182.185C196.127 177.646 194 171.922 194 165.701C194 150.954 205.954 139 220.701 139C232.546 139 242.589 146.713 246.083 157.39C251.258 155.425 255 154 255 154V163.5C255 166 253 178 241.5 184.5C232.52 189.576 230.785 199.141 229.366 206.964C228.968 209.159 228.594 211.217 228.093 213H214.216H212.691C211.419 208.677 208.342 198.81 206.206 193.928C204.682 190.444 201.901 185.716 199.694 182.185Z" fill="#F55BA4"/>
<path fill-rule="evenodd" clip-rule="evenodd" d="M116.232 185.841C121.851 180.946 125.402 173.738 125.402 165.701C125.402 150.954 113.448 139 98.701 139C83.9545 139 72 150.954 72 165.701C72 171.922 74.1274 177.646 77.6945 182.185C79.9013 185.716 82.6818 190.444 84.2062 193.928C86.3423 198.81 89.4192 208.677 90.6907 213H92.2165H107.093C109.381 204.863 114.34 188.13 115.866 186.299C115.978 186.164 116.101 186.011 116.232 185.841Z" fill="#F55BA4"/>
<path d="M21 100C21 66.8629 47.8629 40 81 40H223C261.66 40 293 71.3401 293 110V154L274 174L81.2372 174.762C48.0077 174.893 21 147.992 21 114.762V100Z" fill="#FFBF8F"/>
<path d="M215.255 77.6449C217.647 77.8072 219.813 80.4157 220.311 84.2288C220.638 86.7327 219.65 89.5324 221.198 90.6933C221.791 91.1358 223.163 91.1656 223.964 89.6428L235.681 67.3718C235.681 67.3718 237.159 64.5623 239.968 66.0403C242.778 67.5183 241.3 70.3278 241.3 70.3278L232.703 86.6694C232.724 86.6286 234.155 87.3185 234.168 87.2932L244.552 67.5549C244.552 67.5549 246.03 64.7454 248.84 66.2235C251.649 67.7015 250.171 70.511 250.171 70.511L239.786 90.2521C239.773 90.2759 241.16 91.0487 241.139 91.088L249.913 74.4107C249.913 74.4107 251.391 71.6012 254.201 73.0792C257.01 74.5573 255.532 77.3668 255.532 77.3668L246.192 95.1201C246.105 95.2859 247.412 96.2117 247.303 96.4182L253.611 84.4272C253.611 84.4272 255.089 81.6177 257.899 83.0957C260.708 84.5737 259.23 87.3832 259.23 87.3832L247.96 108.806C243.063 118.115 231.544 121.692 222.235 116.795C215.527 113.266 212.833 107.189 212.244 102.047C211.746 97.687 212.865 94.0216 213.26 92.9434C213.26 92.9434 214.18 90.7749 213.754 88.0645C213.145 84.2129 212.574 81.7835 212.221 80.3243C212.041 79.5857 212.604 77.4645 215.255 77.6449Z" fill="#FFA25C"/>
<circle cx="24" cy="119" r="24" fill="#F55BA4"/>
<circle cx="14" cy="118" r="6" fill="#190E4F"/>
<circle cx="33" cy="118" r="6" fill="#190E4F"/>
<path fill-rule="evenodd" clip-rule="evenodd" d="M151.232 185.841C156.851 180.946 160.402 173.738 160.402 165.701C160.402 150.954 148.448 139 133.701 139C118.954 139 107 150.954 107 165.701C107 171.922 109.127 177.646 112.694 182.185C114.901 185.716 117.682 190.444 119.206 193.928C121.342 198.81 124.419 208.677 125.691 213H127.216H142.093C144.381 204.863 149.34 188.13 150.866 186.299C150.978 186.164 151.101 186.011 151.232 185.841Z" fill="#FFBF8F"/>
<path fill-rule="evenodd" clip-rule="evenodd" d="M241.678 190.832C236.697 187.913 232.623 183.364 230.347 177.574C224.951 163.85 231.703 148.351 245.427 142.955C256.451 138.622 268.62 142.125 275.778 150.784C279.875 147.062 282.836 144.366 282.836 144.366L286.312 153.208C287.227 155.534 289.756 167.434 281.431 177.691C274.931 185.7 276.816 195.237 278.357 203.037C278.79 205.225 279.195 207.277 279.381 209.12L266.467 214.197L265.047 214.755C262.282 211.197 255.808 203.14 252.034 199.378C249.341 196.693 245.023 193.311 241.678 190.832Z" fill="#FFBF8F"/>
<path d="M103.08 30.9351C101.584 39.422 96.6027 46.4467 92.094 51.2841C90.8005 52.672 90.1537 53.3659 88.305 54.0195C86.4242 54.6844 82.6012 54.1421 80.9795 52.9804C79.3855 51.8385 78.9542 50.9862 78.0918 49.2818C74.9483 43.0693 71.9979 34.4496 73.5361 25.7257C75.0744 17.0017 80.7951 9.91093 85.8737 5.14829C87.2671 3.84157 87.9638 3.18822 89.8523 2.66035C91.7735 2.12332 95.5514 2.9213 97.0914 4.18939C98.605 5.43585 98.9755 6.30915 99.7164 8.05577C102.299 14.1434 104.577 22.4482 103.08 30.9351Z" fill="#FFBF8F"/>
<path d="M54.1252 31.5472C57.0727 39.6452 56.2712 48.2194 54.7853 54.663C54.3589 56.5118 54.1458 57.4362 52.8715 58.9265C51.5752 60.4427 47.9932 61.8846 46.0079 61.6894C44.0565 61.4975 43.2569 60.975 41.6578 59.9301C35.8293 56.1217 28.9642 50.132 25.9344 41.8078C22.9046 33.4835 24.3135 24.4823 26.3304 17.8184C26.8838 15.9901 27.1605 15.0759 28.532 13.6745C29.9273 12.2489 33.5981 11.051 35.5657 11.3792C37.4998 11.7018 38.2573 12.2729 39.7722 13.4151C45.0524 17.396 51.1777 23.4491 54.1252 31.5472Z" fill="#FFBF8F"/>
<path d="M274 80.5C276 72.5 281.5 65.5 300 62.5C308.038 61.1966 291 44.5 307 41" stroke="#FFBF8F" stroke-width="12" stroke-linecap="round"/>
<path d="M102 150C102 150 92.598 150 81 150C69.402 150 60 150 60 150C60 138.402 69.402 129 81 129C92.598 129 102 138.402 102 150Z" fill="white"/>
<path d="M63.9183 75.2136C62.7594 74.0547 62.7594 72.1757 63.9183 71.0167L66.0167 68.9183C67.1757 67.7594 69.0547 67.7594 70.2136 68.9183L85.9518 84.6565C87.1107 85.8154 87.1107 87.6944 85.9518 88.8534L83.8534 90.9518C82.6944 92.1107 80.8154 92.1107 79.6565 90.9518L63.9183 75.2136Z" fill="#190E4F"/>
<path d="M70.2136 90.9518C69.0547 92.1107 67.1757 92.1107 66.0167 90.9518L63.9183 88.8534C62.7594 87.6944 62.7594 85.8154 63.9183 84.6565L79.6565 68.9183C80.8154 67.7594 82.6944 67.7594 83.8534 68.9183L85.9518 71.0167C87.1107 72.1757 87.1107 74.0547 85.9518 75.2136L70.2136 90.9518Z" fill="#190E4F"/>
</svg>
