<svg width="159" height="61" viewBox="0 0 159 61" fill="none" xmlns="http://www.w3.org/2000/svg">
<path d="M59.8019 8.81909C60.8472 8.72769 61.849 8.87642 62.8074 9.26529C63.7852 9.63098 64.5985 10.2044 65.2473 10.9856C65.8942 11.7455 66.2643 12.6585 66.3576 13.7246C66.4248 14.4922 66.3097 15.265 66.0124 16.0429C65.7364 16.8191 65.323 17.4998 64.7724 18.085C64.2217 18.6703 63.5894 19.0586 62.8752 19.25L62.8892 19.4099C64.0943 19.6698 65.0286 20.2756 65.6923 21.2274C66.3755 22.156 66.7787 23.3239 66.9018 24.7311C66.9896 25.7333 67.1611 26.5884 67.4166 27.2966C67.6702 27.9834 68.1574 28.392 68.8781 28.5224L68.9929 29.8337C68.0471 30.3246 66.7848 30.6391 65.2062 30.7771C63.6916 30.9096 62.5339 30.6993 61.7332 30.1462C60.9305 29.5719 60.4639 28.5384 60.3332 27.0458C60.2101 25.6386 59.9298 24.5244 59.4925 23.7032C59.0747 22.8589 58.2684 22.4889 57.0738 22.5934L55.2179 22.7557L55.9625 31.2632L49.4027 31.8368L47.4822 9.89638L59.8019 8.81909ZM54.7895 17.8622L58.1814 17.5656C58.6294 17.5265 58.9897 17.3446 59.2622 17.0199C59.5542 16.6721 59.6806 16.2743 59.6414 15.8266L59.6134 15.5067C59.5742 15.059 59.3815 14.6998 59.0354 14.4293C58.7088 14.1356 58.3214 14.0083 57.8735 14.0475L54.4816 14.3441L54.7895 17.8622Z" fill="#190E4F"/>
<path d="M86.5117 23.8221C86.5472 24.2272 86.6693 24.5173 86.8781 24.6924C87.0869 24.8675 87.3299 24.9429 87.6073 24.9187C88.0126 24.8832 88.3775 24.7547 88.702 24.5329L89.0016 27.9551C88.3619 28.5052 87.306 28.8446 85.8341 28.9733C84.4688 29.0927 83.4048 28.9709 82.6422 28.6079C81.8777 28.2235 81.2981 27.6189 80.9035 26.794C80.5893 27.3801 80.0424 28.008 79.2627 28.6778C78.4811 29.3263 77.589 29.6943 76.5864 29.782L75.6904 29.8603C74.8158 29.9368 73.9865 29.7945 73.2025 29.4333C72.4398 29.0703 71.8135 28.545 71.3234 27.8573C70.8314 27.1484 70.5471 26.3568 70.4706 25.4826L69.432 13.6169L75.7678 13.0628L76.6636 23.2974C76.7103 23.8305 76.9104 24.2749 77.264 24.6307C77.6371 24.9634 78.0582 25.1091 78.5276 25.0681C78.9969 25.0271 79.3757 24.8113 79.6639 24.4209C79.9717 24.0072 80.1022 23.5339 80.0555 23.0008L79.1597 12.7662L85.4955 12.2122L86.5117 23.8221Z" fill="#190E4F"/>
<path d="M95.4038 4.61013L96.5208 17.3714L100.149 10.9308L107.381 10.2984L102.299 18.1874L108.907 26.6334L101.451 27.2854L98.1655 22.8997L97.1003 23.9919L97.4195 27.638L91.0837 28.192L89.068 5.16416L95.4038 4.61013Z" fill="#190E4F"/>
<path d="M117.033 9.13207C118.057 9.04253 119.118 9.12169 120.214 9.36958C121.33 9.59427 122.28 10.0054 123.063 10.603C123.846 11.2005 124.279 11.9684 124.361 12.9066C124.378 13.0984 124.383 13.2806 124.376 13.4531C124.368 13.6042 124.366 13.7011 124.37 13.7437L119.122 14.2026C119.077 13.6909 118.811 13.3489 118.323 13.1767C117.854 12.9814 117.332 12.9089 116.756 12.9592C115.177 13.0973 114.415 13.4755 114.469 14.0938C114.503 14.4776 114.761 14.7236 115.243 14.8318C115.745 14.9169 116.556 14.9748 117.677 15.0058C119.142 15.0495 120.355 15.1582 121.316 15.332C122.299 15.504 123.175 15.9323 123.944 16.617C124.733 17.2785 125.189 18.3129 125.312 19.7202C125.487 21.7244 124.879 23.2493 123.487 24.2949C122.117 25.3386 120.365 25.9537 118.232 26.1403L116.568 26.2858C115.373 26.3902 114.216 26.3088 113.097 26.0415C111.996 25.7509 111.071 25.2517 110.322 24.5438C109.572 23.8359 109.148 22.9276 109.051 21.8189L109.026 21.531C109.015 21.4031 109.017 21.3062 109.033 21.2404L114.217 20.7871L114.228 20.915C114.282 21.5333 114.598 21.9462 115.175 22.1535C115.75 22.3396 116.4 22.4009 117.125 22.3375C117.765 22.2815 118.368 22.1644 118.932 21.9861C119.519 21.8059 119.794 21.5133 119.758 21.1082C119.723 20.703 119.453 20.4473 118.95 20.341C118.444 20.2133 117.619 20.1136 116.473 20.0419C115.093 19.9907 113.911 19.8685 112.926 19.6752C111.942 19.482 111.066 19.0537 110.299 18.3903C109.551 17.7037 109.119 16.6994 109.003 15.3775C108.895 14.1408 109.179 13.0847 109.854 12.2092C110.55 11.3104 111.456 10.6188 112.575 10.1343C113.691 9.62843 114.847 9.32327 116.042 9.21881L117.033 9.13207Z" fill="#190E4F"/>
<path d="M132.927 5.93747L126.623 6.48871L126.223 1.91513L132.527 1.36389L132.927 5.93747ZM134.543 24.3917L128.239 24.943L126.811 8.63158L133.115 8.08034L134.543 24.3917Z" fill="#190E4F"/>
<path d="M144.408 6.73833C145.432 6.64879 146.492 6.72796 147.588 6.97584C148.704 7.20053 149.654 7.61166 150.437 8.20922C151.22 8.80678 151.653 9.57464 151.735 10.5128C151.752 10.7047 151.757 10.8869 151.751 11.0593C151.742 11.2104 151.74 11.3073 151.744 11.35L146.496 11.8089C146.451 11.2971 146.185 10.9552 145.697 10.783C145.228 10.5876 144.706 10.5151 144.13 10.5655C142.551 10.7035 141.789 11.0817 141.843 11.7001C141.877 12.0839 142.135 12.3299 142.617 12.4381C143.119 12.5231 143.93 12.5811 145.051 12.612C146.516 12.6558 147.73 12.7645 148.691 12.9383C149.673 13.1102 150.549 13.5385 151.318 14.2232C152.107 14.8848 152.563 15.9192 152.686 17.3264C152.861 19.3307 152.253 20.8556 150.862 21.9012C149.491 22.9449 147.739 23.56 145.606 23.7465L143.942 23.892C142.748 23.9965 141.59 23.9151 140.471 23.6477C139.371 23.3572 138.445 22.858 137.696 22.1501C136.946 21.4422 136.522 20.5339 136.425 19.4251L136.4 19.1373C136.389 19.0093 136.391 18.9125 136.407 18.8466L141.591 18.3933L141.602 18.5213C141.656 19.1396 141.972 19.5524 142.549 19.7598C143.124 19.9459 143.774 20.0072 144.499 19.9437C145.139 19.8878 145.742 19.7706 146.307 19.5923C146.893 19.4122 147.168 19.1195 147.133 18.7144C147.097 18.3093 146.828 18.0536 146.324 17.9472C145.818 17.8195 144.993 17.7199 143.847 17.6481C142.467 17.597 141.285 17.4747 140.3 17.2815C139.316 17.0883 138.44 16.6599 137.673 15.9966C136.925 15.31 136.493 14.3057 136.377 12.9837C136.269 11.7471 136.553 10.6909 137.229 9.81542C137.924 8.9167 138.831 8.22508 139.949 7.74055C141.065 7.23469 142.221 6.92954 143.416 6.82507L144.408 6.73833Z" fill="#190E4F"/>
<path d="M67.0771 59.2964L61.3173 59.8L53.894 50.8775L53.7784 50.662L54.6295 60.3848L48.4537 60.9249L46.5332 38.9845L52.165 38.492L59.7359 47.6273L59.8195 47.8455L58.9488 37.8988L65.1566 37.356L67.0771 59.2964Z" fill="#190E4F"/>
<path d="M77.7874 41.5691C79.3873 41.4292 80.8581 41.655 82.1996 42.2467C83.5607 42.8153 84.6579 43.6861 85.4915 44.8594C86.3464 46.0308 86.8429 47.4054 86.981 48.9832L87.0398 49.6549C87.1798 51.254 86.9306 52.7046 86.2922 54.0066C85.6751 55.3067 84.7458 56.3548 83.5042 57.1509C82.284 57.9451 80.8739 58.4122 79.274 58.5521L78.25 58.6416C76.65 58.7815 75.1696 58.5672 73.8085 57.9987C72.467 57.407 71.3688 56.5255 70.5139 55.3541C69.6803 54.1808 69.1945 52.8053 69.0564 51.2274L68.9976 50.5558C68.8595 48.978 69.0989 47.539 69.716 46.2389C70.3544 44.9369 71.2837 43.8888 72.504 43.0946C73.7437 42.2772 75.1635 41.7985 76.7634 41.6586L77.7874 41.5691ZM77.6142 45.4838C76.9955 45.5379 76.4925 45.8075 76.105 46.2925C75.7157 46.7563 75.5481 47.2973 75.6022 47.9157L76.0193 52.6812C76.0735 53.2995 76.3334 53.8139 76.7993 54.2243C77.2633 54.6135 77.8046 54.781 78.4232 54.7269C79.0419 54.6728 79.5459 54.4139 79.9352 53.9501C80.3226 53.4651 80.4893 52.9133 80.4352 52.295L80.0181 47.5295C79.9639 46.9112 79.7049 46.4075 79.2409 46.0183C78.7751 45.6079 78.2328 45.4297 77.6142 45.4838Z" fill="#190E4F"/>
<path d="M98.467 39.7607C99.8749 39.6376 100.997 39.9369 101.834 40.6587C102.691 41.3573 103.179 42.3889 103.298 43.7535L103.346 44.2972L103.388 45.5181L103.394 46.3233L98.2105 46.7766L98.1433 46.009C98.1041 45.5613 97.9328 45.2002 97.6294 44.926C97.3454 44.6285 97.0221 44.4957 96.6594 44.5274C96.2754 44.561 95.9587 44.7498 95.7094 45.0939C95.4796 45.4148 95.3842 45.7991 95.4234 46.2469L96.3417 56.7373L90.1659 57.2774L88.7353 40.934L93.4711 40.5199L94.3823 42.8251C94.4879 42.558 94.7034 42.1954 95.0287 41.7372C95.354 41.2791 95.8111 40.8524 96.3998 40.4571C96.9886 40.0619 97.6777 39.8297 98.467 39.7607Z" fill="#190E4F"/>
<path d="M124.862 37.4526C125.736 37.3762 126.555 37.5194 127.318 37.8824C128.102 38.2436 128.74 38.7786 129.231 39.4876C129.722 40.1753 130.005 40.9562 130.081 41.8304L131.12 53.6961L124.912 54.239L124.005 43.8764C123.96 43.3647 123.775 42.962 123.448 42.6683C123.141 42.3514 122.763 42.2125 122.315 42.2517C121.867 42.2908 121.509 42.4941 121.24 42.8613C120.991 43.2054 120.889 43.6333 120.933 44.1451L121.84 54.5076L115.633 55.0504L114.726 44.6879C114.681 44.1762 114.495 43.7734 114.168 43.4797C113.861 43.1628 113.484 43.024 113.036 43.0631C112.588 43.1023 112.229 43.3055 111.96 43.6728C111.711 44.0169 111.609 44.4448 111.654 44.9565L112.561 55.319L106.353 55.8619L104.922 39.5185L109.658 39.1044L110.537 41.4124C111.767 39.5001 113.161 38.4758 114.718 38.3397L115.582 38.2641C116.478 38.1858 117.319 38.3378 118.105 38.7203C118.89 39.1028 119.52 39.6601 119.992 40.3922C120.373 39.5855 120.906 38.9265 121.593 38.4153C122.3 37.9022 123.102 37.6065 123.998 37.5282L124.862 37.4526Z" fill="#190E4F"/>
<path d="M138.915 34.4189L132.612 34.9702L132.211 30.3966L138.515 29.8454L138.915 34.4189ZM140.531 52.8732L134.227 53.4244L132.799 37.113L139.103 36.5618L140.531 52.8732Z" fill="#190E4F"/>
<path d="M150.396 35.2198C151.42 35.1303 152.48 35.2094 153.577 35.4573C154.692 35.682 155.642 36.0931 156.425 36.6907C157.208 37.2882 157.641 38.0561 157.723 38.9943C157.74 39.1862 157.745 39.3683 157.739 39.5408C157.73 39.6919 157.728 39.7888 157.732 39.8314L152.484 40.2903C152.439 39.7786 152.173 39.4367 151.685 39.2645C151.216 39.0691 150.694 38.9966 150.118 39.047C148.54 39.185 147.777 39.5632 147.831 40.1815C147.865 40.5653 148.123 40.8113 148.605 40.9196C149.107 41.0046 149.918 41.0626 151.039 41.0935C152.504 41.1372 153.718 41.246 154.679 41.4198C155.661 41.5917 156.537 42.02 157.306 42.7047C158.095 43.3662 158.551 44.4006 158.674 45.8079C158.85 47.8122 158.242 49.3371 156.85 50.3826C155.479 51.4263 153.728 52.0415 151.594 52.228L149.93 52.3735C148.736 52.478 147.579 52.3965 146.459 52.1292C145.359 51.8387 144.434 51.3395 143.684 50.6316C142.934 49.9237 142.511 49.0153 142.414 47.9066L142.388 47.6187C142.377 47.4908 142.379 47.3939 142.395 47.3281L147.579 46.8748L147.59 47.0027C147.644 47.6211 147.96 48.0339 148.537 48.2413C149.112 48.4273 149.762 48.4886 150.488 48.4252C151.128 48.3692 151.73 48.2521 152.295 48.0738C152.881 47.8936 153.156 47.601 153.121 47.1959C153.085 46.7908 152.816 46.535 152.312 46.4287C151.806 46.301 150.981 46.2013 149.835 46.1296C148.455 46.0784 147.273 45.9562 146.289 45.763C145.304 45.5697 144.429 45.1414 143.661 44.478C142.913 43.7914 142.481 42.7872 142.366 41.4652C142.257 40.2285 142.541 39.1724 143.217 38.2969C143.912 37.3982 144.819 36.7065 145.937 36.222C147.054 35.7162 148.209 35.411 149.404 35.3065L150.396 35.2198Z" fill="#190E4F"/>
<ellipse cx="20.0758" cy="36.1184" rx="20.0758" ry="20.0658" fill="#F55BA4"/>
<ellipse cx="20.0758" cy="36.1184" rx="20.0758" ry="20.0658" fill="url(#paint0_linear)" fill-opacity="0.25" style="mix-blend-mode:multiply"/>
<ellipse cx="11.6439" cy="35.2154" rx="5.01894" ry="4.91612" fill="#190E4F"/>
<ellipse cx="27.6041" cy="35.2154" rx="4.91856" ry="4.91612" fill="#190E4F"/>
<defs>
<linearGradient id="paint0_linear" x1="31.3182" y1="53.7763" x2="17.8793" y2="16.0484" gradientUnits="userSpaceOnUse">
<stop stop-color="#F55BA4"/>
<stop offset="1" stop-color="#F55BA4" stop-opacity="0"/>
</linearGradient>
</defs>
</svg>
