<svg width="54" height="68" viewBox="0 0 54 68" fill="none" xmlns="http://www.w3.org/2000/svg">
<path d="M22.7806 5.61004C25.3936 5.61004 27.5108 7.72726 27.5108 10.3402V10.3497L32.241 0.879883C34.8539 0.879883 36.9711 2.9971 36.9711 5.61004V8.04135L41.7013 5.13703C44.3142 5.13703 46.4315 7.25425 46.4315 9.86719V16.5556L48.3235 34.0572H22.7012L22.7806 5.61004Z" fill="#FFA25C"/>
<path d="M2.20473 30.636C4.81767 29.4819 8.55071 31.0289 11.192 34.7689C12.9271 37.2245 13.4379 40.7208 15.716 41.0853C16.5863 41.2232 18.0508 40.4941 18.0508 38.4466L18.0508 8.50012C18.0508 8.50012 18.0508 4.72234 21.8349 4.72234C25.619 4.72234 25.619 8.50012 25.619 8.50012V30.4736C25.619 30.4188 27.5111 30.3527 27.5111 30.3187V3.7779C27.5111 3.7779 27.5111 0.00012207 31.2952 0.00012207C35.0794 0.00012207 35.0794 3.7779 35.0794 3.7779V30.3225C35.0794 30.3546 36.9714 30.3999 36.9714 30.4528V8.0279C36.9714 8.0279 36.9714 4.25012 40.7555 4.25012C44.5397 4.25012 44.5397 8.0279 44.5397 8.0279V31.8997C44.5397 32.1226 46.4317 32.3738 46.4317 32.6515V16.5279C46.4317 16.5279 46.4317 12.7501 50.2159 12.7501C54 12.7501 54 16.5279 54 16.5279V45.3335C54 57.8511 43.8339 68.0001 31.2952 68.0001C22.2606 68.0001 16.0452 63.0928 12.5714 58.0041C9.62541 53.688 8.77209 49.2076 8.59045 47.8532C8.59045 47.8532 8.35772 45.0596 6.40322 42.4416C3.62378 38.7223 1.67306 36.4802 0.490517 35.1391C-0.109267 34.461 -0.692023 31.9148 2.20473 30.636Z" fill="#FFBF8F"/>
</svg>
