<svg width="63" height="74" viewBox="0 0 63 74" fill="none" xmlns="http://www.w3.org/2000/svg">
<path d="M32.5478 9.07301C35.0064 9.50653 36.6473 11.85 36.2138 14.3086L36.2122 14.3175L42.2342 6.19179C44.6929 6.62531 46.3338 8.96878 45.9002 11.4274L45.4969 13.7151L50.4295 11.7671C52.8882 12.2006 54.5291 14.5441 54.0956 17.0027L52.9859 23.2962L51.8624 40.0781L27.7532 35.827L32.5478 9.07301Z" fill="#D2A077"/>
<path d="M9.02603 29.2557C11.6765 28.6014 14.932 30.6789 16.7957 34.6422C18.0202 37.2445 17.9198 40.6246 20.0027 41.3462C20.7988 41.6205 22.2979 41.1763 22.6382 39.2464L27.6151 11.0211C27.6151 11.0211 28.2429 7.46046 31.8036 8.0883C35.3642 8.71614 34.7364 12.2768 34.7364 12.2768L31.0846 32.9873C31.0937 32.9357 32.885 33.1873 32.8906 33.1553L37.3015 8.1399C37.3015 8.1399 37.9294 4.57924 41.49 5.20708C45.0507 5.83492 44.4228 9.39557 44.4228 9.39557L40.0113 34.4145C40.006 34.4448 41.7788 34.8014 41.77 34.8513L45.4968 13.7152C45.4968 13.7152 46.1247 10.1546 49.6853 10.7824C53.246 11.4103 52.6182 14.9709 52.6182 14.9709L48.6508 37.4707C48.6138 37.6808 50.3524 38.2315 50.3062 38.4932L52.9858 23.2963C52.9858 23.2963 53.6137 19.7356 57.1743 20.3635C60.735 20.9913 60.1071 24.552 60.1071 24.552L55.3199 51.702C53.2395 63.5002 41.9871 71.3792 30.1889 69.2989C21.6879 67.7999 16.655 62.1434 14.2321 56.7708C12.1774 52.214 12.1191 47.8495 12.1733 46.5428C12.1733 46.5428 12.4186 43.8711 11.0146 41.0793C9.01739 37.1127 7.55449 34.6758 6.66467 33.2156C6.213 32.4769 6.08783 29.9804 9.02603 29.2557Z" fill="#FFBF8F"/>
</svg>
