<svg width="74" height="84" viewBox="0 0 74 84" fill="none" xmlns="http://www.w3.org/2000/svg">
<path d="M42.7449 13.8792C45.2003 14.7729 46.4657 17.4865 45.572 19.9419L45.5688 19.9508L53.2526 12.6699C55.7079 13.5636 56.9733 16.2773 56.0796 18.7326L55.2481 21.0173L60.6863 19.9059C63.1417 20.7996 64.4071 23.5133 63.5134 25.9686L61.2258 32.2537L57.0179 49.347L32.9408 40.5836L42.7449 13.8792Z" fill="#FFA25C"/>
<path d="M14.8505 30.3584C17.7006 30.1676 20.6794 32.8981 21.8823 37.3159C22.6728 40.2168 21.9571 43.677 23.973 44.7987C24.7437 45.2259 26.3692 45.0417 27.0696 43.1176L37.3118 14.9772C37.3118 14.9772 38.6039 11.4272 42.1598 12.7215C45.7158 14.0157 44.4237 17.5657 44.4237 17.5657L36.9083 38.2139C36.9271 38.1625 38.7276 38.7475 38.7393 38.7155L47.8167 13.7753C47.8167 13.7753 49.1088 10.2254 52.6647 11.5196C56.2206 12.8139 54.9286 16.3638 54.9286 16.3638L45.8498 41.3076C45.8388 41.3377 47.6013 42.0275 47.5832 42.0772L55.2529 21.0047C55.2529 21.0047 56.545 17.4547 60.1009 18.749C63.6569 20.0432 62.3648 23.5932 62.3648 23.5932L54.2002 46.0253C54.1239 46.2347 55.816 47.1179 55.721 47.3788L61.2356 32.2277C61.2356 32.2277 62.5276 28.6777 66.0836 29.972C69.6395 31.2662 68.3474 34.8162 68.3474 34.8162L58.4953 61.8845C54.214 73.6473 41.1899 79.7072 29.4074 75.4187C20.9176 72.3287 16.7554 65.5915 15.2315 59.6216C13.9394 54.5582 14.67 50.0561 14.9625 48.7214C14.9625 48.7214 15.6993 46.0166 14.7581 42.888C13.4183 38.4424 12.3521 35.6684 11.6995 34.0037C11.3678 33.1613 11.6911 30.5693 14.8505 30.3584Z" fill="#FFBF8F"/>
</svg>
