<svg width="73" height="93" viewBox="0 0 73 93" fill="none" xmlns="http://www.w3.org/2000/svg">
<path d="M30.7959 7.58381C34.3282 7.58381 37.1904 10.446 37.1904 13.9783V13.9911L43.5849 1.18933C47.1172 1.18933 49.9793 4.0515 49.9793 7.58381V10.8706L56.3738 6.94436C59.9061 6.94436 62.7683 9.80653 62.7683 13.3388V22.3806L65.3261 46.0402H30.6885L30.7959 7.58381Z" fill="#D2A077"/>
<path d="M2.98047 41.4848C6.51278 39.922 11.5593 42.0168 15.13 47.0813C17.4755 50.4064 18.1661 55.1409 21.2457 55.6345C22.4222 55.8212 24.402 54.8339 24.402 52.0613V11.5101C24.402 11.5101 24.402 6.39448 29.5175 6.39448C34.6331 6.39448 34.6331 11.5101 34.6331 11.5101V41.2648C34.6331 41.1907 37.1909 41.1012 37.1909 41.0551V5.11558C37.1909 5.11558 37.1909 0 42.3065 0C47.4221 0 47.4221 5.11558 47.4221 5.11558V41.0602C47.4221 41.1037 49.9799 41.1651 49.9799 41.2367V10.8706C49.9799 10.8706 49.9799 5.75503 55.0955 5.75503C60.211 5.75503 60.211 10.8706 60.211 10.8706V43.196C60.211 43.4978 62.7688 43.838 62.7688 44.214V22.3807C62.7688 22.3807 62.7688 17.2651 67.8844 17.2651C73 17.2651 73 22.3807 73 22.3807V61.387C73 78.3375 59.257 92.0805 42.3065 92.0805C30.0931 92.0805 21.6907 85.4354 16.9946 78.5447C13.0121 72.7001 11.8586 66.633 11.613 64.7991C11.613 64.7991 11.2984 61.0161 8.6562 57.471C4.89881 52.4347 2.26173 49.3986 0.663107 47.5826C-0.147713 46.6643 -0.935513 43.2164 2.98047 41.4848Z" fill="#FFBF8F"/>
</svg>
