<svg width="36" height="36" viewBox="0 0 36 36" fill="none" xmlns="http://www.w3.org/2000/svg">
<circle cx="18" cy="18" r="18" fill="white"/>
<path d="M22.7364 14.2518L18.7545 8.37619C18.5818 8.1254 18.2909 8 18 8C17.7091 8 17.4182 8.1254 17.2455 8.38514L13.2636 14.2518H8.90909C8.40909 14.2518 8 14.6549 8 15.1475C8 15.2281 8.00909 15.3087 8.03636 15.3894L10.3455 23.6923C10.5545 24.4447 11.2545 25 12.0909 25H23.9091C24.7455 25 25.4455 24.4447 25.6636 23.6923L27.9727 15.3894L28 15.1475C28 14.6549 27.5909 14.2518 27.0909 14.2518H22.7364ZM15.2727 14.2518L18 10.3109L20.7273 14.2518H15.2727ZM18 21.4173C17 21.4173 16.1818 20.6112 16.1818 19.6259C16.1818 18.6407 17 17.8346 18 17.8346C19 17.8346 19.8182 18.6407 19.8182 19.6259C19.8182 20.6112 19 21.4173 18 21.4173Z" fill="#F4549D"/>
</svg>
