<svg width="40" height="40" viewBox="0 0 40 40" fill="none" xmlns="http://www.w3.org/2000/svg">
<circle cx="20" cy="20" r="20" fill="#1DA1F2"/>
<path d="M16.1408 28.4C23.9899 28.4 28.283 21.936 28.283 16.3304C28.283 16.1468 28.283 15.964 28.2705 15.7821C29.1057 15.1816 29.8267 14.4381 30.3996 13.5863C29.6208 13.9294 28.7945 14.1543 27.9485 14.2537C28.8394 13.7236 29.5061 12.8898 29.8247 11.9075C28.987 12.4016 28.0705 12.7498 27.1149 12.9371C26.4715 12.257 25.6205 11.8067 24.6936 11.6558C23.7668 11.5049 22.8158 11.6619 21.9877 12.1024C21.1597 12.5429 20.5007 13.2424 20.1129 14.0927C19.7251 14.9429 19.63 15.8965 19.8424 16.8059C18.1457 16.7214 16.4859 16.2831 14.9707 15.5196C13.4555 14.756 12.1188 13.6843 11.0473 12.3739C10.5016 13.3077 10.3344 14.4132 10.5799 15.4653C10.8254 16.5173 11.465 17.4368 12.3685 18.0365C11.6894 18.0165 11.0251 17.8344 10.4316 17.5056C10.4316 17.523 10.4316 17.5411 10.4316 17.5593C10.4319 18.5387 10.7729 19.4879 11.397 20.2458C12.021 21.0037 12.8895 21.5237 13.8553 21.7176C13.227 21.8879 12.5678 21.9128 11.9284 21.7904C12.2011 22.6333 12.732 23.3704 13.4468 23.8985C14.1617 24.4267 15.0248 24.7196 15.9153 24.7363C14.4042 25.9168 12.5375 26.5576 10.6155 26.5557C10.2759 26.5551 9.93674 26.5346 9.59961 26.4945C11.5512 27.7394 13.8219 28.3997 16.1408 28.3967" fill="white"/>
</svg>
