<svg width="90" height="90" viewBox="0 0 90 90" fill="none" xmlns="http://www.w3.org/2000/svg">
<circle cx="45" cy="45" r="45" fill="#F55BA4"/>
<path d="M22.5181 34.4524C23.1114 34.3478 23.6919 34.3828 24.2595 34.5573C24.8371 34.7177 25.331 35.0051 25.7412 35.4197C26.1492 35.8222 26.4066 36.3261 26.5134 36.9315C26.5902 37.3674 26.5631 37.8154 26.432 38.2755C26.313 38.7335 26.1107 39.1437 25.825 39.5062C25.5393 39.8686 25.1971 40.1225 24.7982 40.2678L24.8142 40.3586C25.5165 40.447 26.0812 40.7469 26.5085 41.2584C26.9457 41.7556 27.2348 42.4037 27.3757 43.2029C27.4761 43.772 27.617 44.2527 27.7986 44.6452C27.978 45.0256 28.2771 45.235 28.6959 45.2735L28.8272 46.0182C28.3108 46.3465 27.6046 46.5896 26.7086 46.7476C25.8489 46.8992 25.1762 46.8367 24.6905 46.5603C24.2027 46.2718 23.884 45.7038 23.7346 44.8562C23.5936 44.057 23.3776 43.4334 23.0863 42.9854C22.8051 42.5231 22.3254 42.3518 21.6473 42.4713L20.5939 42.6571L21.4458 47.4883L17.7225 48.1448L15.5255 35.6854L22.5181 34.4524ZM20.1039 39.8782L22.0291 39.5388C22.2834 39.4939 22.4804 39.3718 22.62 39.1724C22.7696 38.9587 22.822 38.7248 22.7771 38.4705L22.7451 38.2889C22.7003 38.0346 22.5721 37.8387 22.3606 37.7012C22.159 37.5495 21.9311 37.496 21.6769 37.5409L19.7516 37.8803L20.1039 39.8782Z" fill="#190E4F"/>
<path d="M38.5465 41.7013C38.5871 41.9314 38.6715 42.0913 38.7997 42.1811C38.9278 42.2708 39.0706 42.3018 39.228 42.2741C39.4581 42.2335 39.6604 42.1417 39.8349 41.9985L40.1776 43.9419C39.8392 44.2887 39.2523 44.5358 38.4168 44.6831C37.6419 44.8197 37.0272 44.8033 36.5729 44.6337C36.1163 44.452 35.7546 44.135 35.4875 43.6827C35.3372 44.0338 35.0558 44.4205 34.6434 44.8428C34.2288 45.253 33.737 45.5083 33.1679 45.6086L32.6593 45.6983C32.1629 45.7858 31.6814 45.7459 31.2149 45.5784C30.7606 45.4089 30.376 45.1396 30.0612 44.7706C29.7443 44.3895 29.5421 43.9508 29.4546 43.4543L28.2665 36.716L31.8626 36.0819L32.8874 41.8939C32.9408 42.1966 33.0775 42.4409 33.2976 42.6269C33.5276 42.7986 33.7758 42.8609 34.0422 42.8139C34.3086 42.767 34.5144 42.6245 34.6598 42.3867C34.8151 42.1346 34.866 41.8572 34.8126 41.5545L33.7878 35.7425L37.384 35.1084L38.5465 41.7013Z" fill="#190E4F"/>
<path d="M42.6707 30.2622L43.9485 37.509L45.7011 33.6418L49.8058 32.9181L47.2945 37.6868L51.4968 42.1895L47.265 42.9357L45.166 40.5903L44.6114 41.2687L44.9765 43.3392L41.3803 43.9733L39.0745 30.8963L42.6707 30.2622Z" fill="#190E4F"/>
<path d="M57.9188 27.5736L55.8585 30.6523L53.5337 31.0622L50.5448 28.8738L52.9059 28.4575L54.4965 29.619L55.594 27.9835L57.9188 27.5736ZM55.2687 31.7676C55.8499 31.6651 56.4602 31.6573 57.0998 31.7443C57.7494 31.817 58.3131 32.0048 58.7909 32.3076C59.2688 32.6103 59.5547 33.0281 59.6486 33.5609C59.6679 33.6698 59.68 33.7738 59.6849 33.8728C59.6878 33.9597 59.6913 34.0153 59.6956 34.0395L56.7169 34.5647C56.6657 34.2741 56.4962 34.0918 56.2085 34.0176C55.9307 33.9293 55.6284 33.9139 55.3015 33.9716C54.4055 34.1296 53.9884 34.3841 54.0503 34.7353C54.0887 34.9532 54.2486 35.0811 54.53 35.1189C54.8213 35.1424 55.2881 35.135 55.9306 35.0966C56.771 35.0483 57.4704 35.0498 58.0288 35.1012C58.5993 35.1504 59.1217 35.3517 59.596 35.705C60.0803 36.0441 60.3929 36.6133 60.5338 37.4124C60.7345 38.5506 60.463 39.4537 59.7193 40.1216C58.9878 40.7875 58.0166 41.2271 56.8057 41.4406L55.8613 41.6072C55.1832 41.7267 54.5173 41.738 53.8635 41.6411C53.2196 41.5299 52.6655 41.2905 52.2012 40.9229C51.7369 40.5553 51.4492 40.0567 51.3382 39.4271L51.3094 39.2636C51.2966 39.191 51.293 39.1354 51.2987 39.097L54.241 38.5782L54.2538 38.6508C54.3157 39.002 54.5169 39.2224 54.8574 39.3122C55.1957 39.3899 55.5706 39.3924 55.9823 39.3198C56.3456 39.2558 56.6843 39.1586 56.9984 39.0283C57.3246 38.8959 57.4674 38.7147 57.4269 38.4846C57.3863 38.2545 57.2193 38.1217 56.9259 38.086C56.6303 38.0383 56.1531 38.0225 55.4943 38.0388C54.7023 38.0786 54.0199 38.0678 53.4473 38.0065C52.8747 37.9452 52.3523 37.7439 51.8801 37.4026C51.4179 37.0472 51.1207 36.4941 50.9883 35.7434C50.8644 35.0411 50.9739 34.4225 51.3165 33.8877C51.6692 33.3386 52.1532 32.8974 52.7686 32.5642C53.3819 32.2189 54.0276 31.9864 54.7056 31.8668L55.2687 31.7676Z" fill="#190E4F"/>
<path d="M65.5594 29.953C66.9639 29.7054 68.0836 29.7889 68.9182 30.2035C69.765 30.616 70.2653 31.2581 70.419 32.1299L71.0947 35.9622C71.1353 36.1923 71.2197 36.3522 71.3479 36.4419C71.4761 36.5317 71.6189 36.5627 71.7763 36.5349C72.0063 36.4944 72.2086 36.4025 72.3831 36.2594L72.7258 38.2028C72.3874 38.5496 71.8005 38.7966 70.9651 38.944C70.1901 39.0806 69.5562 39.0613 69.0634 38.886C68.5684 38.6986 68.2259 38.3845 68.0358 37.9436C67.7273 38.4599 67.3604 38.8929 66.9352 39.2425C66.522 39.5901 65.9764 39.8236 65.2984 39.9432C64.3297 40.114 63.5096 40.0651 62.838 39.7964C62.1664 39.5278 61.7334 38.8426 61.5391 37.7408C61.3918 36.9053 61.5148 36.2219 61.908 35.6906C62.2991 35.1473 62.9156 34.714 63.7575 34.3907C64.6094 34.0532 65.7134 33.7649 67.0695 33.5258L66.9767 32.9991C66.9169 32.6601 66.7549 32.414 66.4907 32.2608C66.2385 32.1055 65.943 32.0577 65.6039 32.1175C65.3255 32.1666 65.074 32.2983 64.8496 32.5127C64.6352 32.7128 64.5494 32.9339 64.5921 33.1761L64.6049 33.2488L61.154 33.8572C61.1355 33.8231 61.1145 33.7394 61.091 33.6062C60.9992 33.0855 61.0926 32.5884 61.3711 32.1148C61.6597 31.6269 62.1095 31.2043 62.7206 30.8468C63.3418 30.4751 64.0882 30.2124 64.96 30.0587L65.5594 29.953ZM67.361 35.1786C66.5618 35.3195 65.9938 35.532 65.6569 35.8162C65.3178 36.0882 65.1813 36.4119 65.2475 36.7872C65.35 37.3684 65.7645 37.595 66.491 37.4669C66.83 37.4071 67.1003 37.2408 67.3019 36.9681C67.5014 36.6832 67.5681 36.3531 67.5019 35.9777L67.361 35.1786Z" fill="#190E4F"/>
<path d="M24.0689 54.3106L22.6722 64.1264L18.513 64.8598L13.8797 56.1072L17.712 55.4315L20.0093 60.4947L20.1365 60.4723L20.5635 54.9287L24.0689 54.3106Z" fill="#190E4F"/>
<path d="M29.9141 53.0927C30.8464 52.9283 31.6776 52.969 32.4076 53.2148C33.1476 53.4464 33.7487 53.846 34.2108 54.4138C34.6851 54.9793 34.9937 55.6678 35.1368 56.479L35.3353 57.6051L29.2873 58.6715L29.441 59.5433C29.5136 59.955 29.6962 60.2474 29.9889 60.4205C30.2937 60.5915 30.652 60.6407 31.0637 60.5681C31.4874 60.4934 31.7859 60.3097 31.959 60.0169C32.1421 59.71 32.1931 59.3265 32.1119 58.8664L35.4357 58.2803C35.5574 58.9705 35.4857 59.6261 35.2207 60.2471C34.9677 60.866 34.525 61.3998 33.8925 61.8484C33.2699 62.2827 32.4925 62.5821 31.5601 62.7465L31.2877 62.7946C30.319 62.9654 29.4163 62.9435 28.5794 62.729C27.7526 62.5003 27.0553 62.0864 26.4878 61.4873C25.9302 60.874 25.5681 60.0951 25.4016 59.1507L25.3023 58.5876C25.1358 57.6432 25.1986 56.7956 25.4907 56.045C25.7928 55.2801 26.2882 54.6559 26.977 54.1724C27.6637 53.6767 28.4914 53.3435 29.46 53.1727L29.9141 53.0927ZM29.9928 55.3448C29.6417 55.4067 29.3675 55.5861 29.1701 55.8831C28.9707 56.168 28.9019 56.486 28.9638 56.8371L29.0086 57.0914L31.515 56.6494L31.4702 56.3952C31.4083 56.044 31.2349 55.7687 30.95 55.5693C30.663 55.3577 30.344 55.2829 29.9928 55.3448Z" fill="#190E4F"/>
<path d="M39.2262 50.402L35.6482 51.0329L35.1902 48.4356L38.7682 47.8047L39.2262 50.402ZM41.074 60.8817L37.496 61.5126L35.8627 52.2498L39.4407 51.6189L41.074 60.8817Z" fill="#190E4F"/>
<path d="M44.1784 46.8508L45.4562 54.0976L47.2088 50.2304L51.3135 49.5066L48.8022 54.2754L53.0045 58.778L48.7726 59.5242L46.6737 57.1789L46.1191 57.8572L46.4842 59.9278L42.888 60.5619L40.5822 47.4849L44.1784 46.8508Z" fill="#190E4F"/>
<path d="M56.9216 48.3305C58.3262 48.0828 59.4458 48.1663 60.2805 48.581C61.1273 48.9935 61.6275 49.6356 61.7813 50.5074L62.457 54.3397C62.4976 54.5698 62.5819 54.7297 62.7101 54.8194C62.8383 54.9092 62.9811 54.9402 63.1385 54.9124C63.3686 54.8719 63.5709 54.78 63.7454 54.6369L64.0881 56.5803C63.7497 56.9271 63.1628 57.1741 62.3273 57.3215C61.5524 57.4581 60.9185 57.4388 60.4256 57.2635C59.9307 57.0761 59.5881 56.762 59.398 56.3211C59.0896 56.8374 58.7227 57.2704 58.2974 57.62C57.8843 57.9675 57.3387 58.2011 56.6606 58.3206C55.692 58.4914 54.8718 58.4425 54.2002 58.1739C53.5286 57.9053 53.0957 57.2201 52.9014 56.1182C52.7541 55.2828 52.877 54.5994 53.2703 54.0681C53.6614 53.5247 54.2779 53.0914 55.1198 52.7682C55.9716 52.4307 57.0757 52.1424 58.4318 51.9033L58.3389 51.3766C58.2791 51.0375 58.1171 50.7914 57.8529 50.6383C57.6008 50.483 57.3052 50.4352 56.9662 50.495C56.6877 50.5441 56.4363 50.6758 56.2119 50.8902C55.9975 51.0903 55.9116 51.3114 55.9543 51.5536L55.9671 51.6262L52.5163 52.2347C52.4978 52.2005 52.4768 52.1168 52.4533 51.9837C52.3615 51.463 52.4548 50.9659 52.7334 50.4923C53.0219 50.0044 53.4717 49.5818 54.0829 49.2243C54.704 48.8526 55.4505 48.5899 56.3223 48.4362L56.9216 48.3305ZM58.7232 53.5561C57.9241 53.697 57.356 53.9095 57.0191 54.1936C56.68 54.4657 56.5436 54.7894 56.6098 55.1647C56.7123 55.7459 57.1268 55.9725 57.8533 55.8444C58.1923 55.7846 58.4626 55.6183 58.6642 55.3456C58.8637 55.0607 58.9303 54.7306 58.8641 54.3552L58.7232 53.5561Z" fill="#190E4F"/>
<path d="M66.4557 42.9227L68.7615 55.9997L65.1654 56.6338L62.8596 43.5568L66.4557 42.9227Z" fill="#190E4F"/>
<path d="M73.5198 45.4038C74.101 45.3013 74.7114 45.2936 75.351 45.3806C76.0005 45.4533 76.5642 45.641 77.0421 45.9438C77.52 46.2466 77.8059 46.6643 77.8998 47.1971C77.919 47.3061 77.9311 47.4101 77.9361 47.5091C77.9389 47.596 77.9425 47.6515 77.9468 47.6757L74.9681 48.2009C74.9169 47.9104 74.7474 47.728 74.4597 47.6539C74.1819 47.5655 73.8796 47.5502 73.5526 47.6078C72.6566 47.7658 72.2396 48.0204 72.3015 48.3715C72.3399 48.5895 72.4998 48.7173 72.7811 48.7551C73.0724 48.7787 73.5393 48.7713 74.1817 48.7329C75.0222 48.6846 75.7216 48.6861 76.28 48.7374C76.8505 48.7867 77.3729 48.9879 77.8472 49.3413C78.3314 49.6804 78.644 50.2495 78.785 51.0486C78.9856 52.1868 78.7142 53.0899 77.9705 53.7579C77.2389 54.4237 76.2677 54.8634 75.0569 55.0769L74.1125 55.2434C73.4344 55.363 72.7685 55.3743 72.1146 55.2773C71.4708 55.1661 70.9167 54.9267 70.4524 54.5592C69.9881 54.1916 69.7004 53.693 69.5894 53.0633L69.5605 52.8999C69.5477 52.8272 69.5442 52.7717 69.5499 52.7332L72.4922 52.2144L72.505 52.2871C72.5669 52.6382 72.7681 52.8587 73.1085 52.9484C73.4468 53.0261 73.8218 53.0287 74.2335 52.9561C74.5968 52.892 74.9354 52.7949 75.2495 52.6646C75.5758 52.5321 75.7186 52.3509 75.678 52.1208C75.6375 51.8908 75.4705 51.7579 75.177 51.7223C74.8815 51.6745 74.4043 51.6588 73.7454 51.6751C72.9534 51.7148 72.2711 51.7041 71.6985 51.6427C71.1259 51.5814 70.6035 51.3801 70.1313 51.0389C69.6691 50.6834 69.3718 50.1303 69.2395 49.3796C69.1156 48.6773 69.225 48.0588 69.5677 47.5239C69.9203 46.9748 70.4044 46.5337 71.0198 46.2004C71.6331 45.8551 72.2787 45.6226 72.9568 45.5031L73.5198 45.4038Z" fill="#190E4F"/>
</svg>
