<svg width="760" height="592" viewBox="0 0 760 592" fill="none" xmlns="http://www.w3.org/2000/svg">
<rect x="460" y="232" width="45" height="100" fill="#FFA25C"/>
<path d="M460 201C460 183.327 474.327 169 492 169H680C697.673 169 712 183.327 712 201V232H460V201Z" fill="white"/>
<path d="M419 332V287H473C490.673 287 505 301.327 505 319V332H419Z" fill="#FFBF8F"/>
<rect x="667" y="232" width="45" height="147" fill="#FFBF8F"/>
<rect x="505" y="169" width="15" height="63" fill="#190E4F"/>
<rect x="652" y="169" width="15" height="63" fill="#190E4F"/>
<path fill-rule="evenodd" clip-rule="evenodd" d="M667 232H505V576H578V432H594V576H667V232Z" fill="#190E4F"/>
<rect x="538" y="246" width="97" height="72" fill="#30246B"/>
<circle cx="558" cy="267" r="8" fill="white"/>
<circle cx="618" cy="267" r="8" fill="white"/>
<rect x="539" y="57" width="93" height="112" fill="#FFBF8F"/>
<path d="M529 124C529 110.745 539.745 100 553 100H618C631.255 100 642 110.745 642 124V206C642 232.51 620.51 254 594 254H577C550.49 254 529 232.51 529 206V124Z" fill="#151515"/>
<path d="M595.19 129.452C595.19 129.452 587.904 128.231 578.917 126.726C569.929 125.22 562.643 124 562.643 124C561.183 132.715 567.286 141.001 576.273 142.506C585.261 144.012 593.73 138.167 595.19 129.452Z" fill="white"/>
<circle cx="539" cy="80" r="10" fill="#FFBF8F"/>
<circle cx="632" cy="80" r="10" fill="#FFBF8F"/>
<rect x="506" y="46" width="160" height="14" fill="#36558F"/>
<path d="M540 32C540 14.3269 554.327 0 572 0H601C618.673 0 633 14.3269 633 32V46H540V32Z" fill="#36558F"/>
<circle cx="565" cy="83" r="8" fill="white"/>
<circle cx="609" cy="83" r="8" fill="white"/>
<circle cx="609" cy="83" r="4" fill="#190E4F"/>
<circle cx="565" cy="83" r="4" fill="#190E4F"/>
<path d="M580 91H594V111C594 114.866 590.866 118 587 118V118C583.134 118 580 114.866 580 111V91Z" fill="#F55BA4"/>
<path d="M529 73V60H551L538.83 73H529Z" fill="#151515"/>
<path d="M642 73V60H620L632.17 73H642Z" fill="#151515"/>
<rect x="417" y="176" width="14" height="356" fill="#190E4F"/>
<path d="M352 176V138C352 134.134 355.134 131 359 131V131C362.866 131 366 134.134 366 138V176H352Z" fill="#190E4F"/>
<path d="M482 176V138C482 134.134 485.134 131 489 131V131C492.866 131 496 134.134 496 138V176H482Z" fill="#190E4F"/>
<path d="M456 176V138C456 134.134 459.134 131 463 131V131C466.866 131 470 134.134 470 138V176H456Z" fill="#190E4F"/>
<path d="M430 176V138C430 134.134 433.134 131 437 131V131C440.866 131 444 134.134 444 138V176H430Z" fill="#190E4F"/>
<path d="M404 176V138C404 134.134 407.134 131 411 131V131C414.866 131 418 134.134 418 138V176H404Z" fill="#190E4F"/>
<path d="M378 176V138C378 134.134 381.134 131 385 131V131C388.866 131 392 134.134 392 138V176H378Z" fill="#190E4F"/>
<rect x="352" y="162" width="144" height="14" fill="#F55BA4"/>
<path d="M409 273H433C446.255 273 457 283.745 457 297V337H409V273Z" fill="#FFA25C"/>
<rect x="555" y="71" width="18" height="6" fill="#151515"/>
<rect x="600.954" y="69" width="18" height="6" transform="rotate(9.14865 600.954 69)" fill="#151515"/>
<path d="M578 546H494C487.373 546 482 551.373 482 558V576H578V546Z" fill="#151515"/>
<rect width="73" height="61" transform="matrix(-1 0 0 1 578 495)" fill="#151515"/>
<path fill-rule="evenodd" clip-rule="evenodd" d="M392.694 545.185C389.127 540.646 387 534.922 387 528.701C387 513.954 398.954 502 413.701 502C425.546 502 435.589 509.713 439.083 520.39C444.258 518.425 448 517 448 517V526.5C448 529 446 541 434.5 547.5C425.52 552.576 423.785 562.141 422.366 569.964C421.968 572.159 421.594 574.217 421.093 576H407.216H405.691C404.419 571.677 401.342 561.81 399.206 556.928C397.682 553.444 394.901 548.716 392.694 545.185Z" fill="#F55BA4"/>
<path fill-rule="evenodd" clip-rule="evenodd" d="M309.232 548.841C314.851 543.946 318.402 536.738 318.402 528.701C318.402 513.954 306.448 502 291.701 502C276.954 502 265 513.954 265 528.701C265 534.922 267.127 540.646 270.694 545.185C272.901 548.716 275.682 553.444 277.206 556.928C279.342 561.81 282.419 571.677 283.691 576H285.216H300.093C302.381 567.863 307.34 551.13 308.866 549.299C308.978 549.164 309.101 549.011 309.232 548.841Z" fill="#F55BA4"/>
<path d="M214 463C214 429.863 240.863 403 274 403H416C454.66 403 486 434.34 486 473V517L467 537L274.237 537.762C241.008 537.893 214 510.992 214 477.762V463Z" fill="#FFBF8F"/>
<circle cx="266.5" cy="448.5" r="16.5" fill="white"/>
<circle cx="217" cy="482" r="24" fill="#F55BA4"/>
<circle cx="207" cy="481" r="6" fill="#190E4F"/>
<circle cx="226" cy="481" r="6" fill="#190E4F"/>
<circle cx="268" cy="453" r="6" fill="#190E4F"/>
<path fill-rule="evenodd" clip-rule="evenodd" d="M344.232 548.841C349.851 543.946 353.402 536.738 353.402 528.701C353.402 513.954 341.448 502 326.701 502C311.954 502 300 513.954 300 528.701C300 534.922 302.127 540.646 305.694 545.185C307.901 548.716 310.682 553.444 312.206 556.928C314.342 561.81 317.419 571.677 318.691 576H320.216H335.093C337.381 567.863 342.34 551.13 343.866 549.299C343.978 549.164 344.101 549.011 344.232 548.841Z" fill="#FFBF8F"/>
<path fill-rule="evenodd" clip-rule="evenodd" d="M430.694 545.185C427.127 540.646 425 534.922 425 528.701C425 513.954 436.954 502 451.701 502C463.546 502 473.589 509.713 477.083 520.39C482.258 518.425 486 517 486 517V526.5C486 529 484 541 472.5 547.5C463.52 552.576 461.785 562.141 460.366 569.964C459.968 572.159 459.594 574.217 459.093 576H445.216H443.691C442.419 571.677 439.342 561.81 437.206 556.928C435.682 553.444 432.901 548.716 430.694 545.185Z" fill="#FFBF8F"/>
<path d="M294.08 374.935C292.584 383.422 287.603 390.447 283.094 395.284C281.8 396.672 281.154 397.366 279.305 398.019C277.424 398.684 273.601 398.142 271.979 396.98C270.385 395.838 269.954 394.986 269.092 393.282C265.948 387.069 262.998 378.45 264.536 369.726C266.074 361.002 271.795 353.911 276.874 349.148C278.267 347.842 278.964 347.188 280.852 346.66C282.773 346.123 286.551 346.921 288.091 348.189C289.605 349.436 289.975 350.309 290.716 352.056C293.299 358.143 295.577 366.448 294.08 374.935Z" fill="#FFBF8F"/>
<path d="M245.125 375.547C248.073 383.645 247.271 392.219 245.785 398.663C245.359 400.512 245.146 401.436 243.872 402.927C242.575 404.443 238.993 405.885 237.008 405.689C235.057 405.497 234.257 404.975 232.658 403.93C226.829 400.122 219.964 394.132 216.934 385.808C213.905 377.483 215.313 368.482 217.33 361.818C217.884 359.99 218.16 359.076 219.532 357.675C220.927 356.249 224.598 355.051 226.566 355.379C228.5 355.702 229.257 356.273 230.772 357.415C236.052 361.396 242.178 367.449 245.125 375.547Z" fill="#FFBF8F"/>
<path d="M467 443.5C468.59 437.142 481.085 430.352 489.958 424.74M489.958 424.74C492.25 423.291 494.299 421.92 495.857 420.656C499.681 417.552 500.547 413.346 499.429 409.539C498.357 405.891 494.188 403.231 490.5 402.367C486.044 401.322 481.571 402.398 479.429 407.029C478.627 408.761 477.691 413.915 481.571 419.221C483.037 421.226 486.3 423.118 489.958 424.74ZM489.958 424.74C496.996 427.86 505.5 429.979 505.5 429.979" stroke="#FFBF8F" stroke-width="12" stroke-linecap="round"/>
<path d="M250.554 501.273C250.554 501.273 259.172 497.513 269.802 492.876C280.433 488.238 289.05 484.479 289.05 484.479C293.688 495.109 288.83 507.487 278.199 512.124C267.569 516.762 255.191 511.903 250.554 501.273Z" fill="white"/>
<path d="M594 546H678C684.627 546 690 551.373 690 558V576H594V546Z" fill="#151515"/>
<rect x="594" y="495" width="73" height="61" fill="#151515"/>
<rect y="576" width="760" height="16" fill="#F55BA4"/>
</svg>
