<svg width="90" height="90" viewBox="0 0 90 90" fill="none" xmlns="http://www.w3.org/2000/svg">
<circle cx="45" cy="45" r="45" fill="#F55BA4"/>
<path d="M17.4345 35.3968C18.1246 35.2751 18.7902 35.3326 19.4312 35.5691C20.0843 35.8035 20.6326 36.1875 21.0763 36.721C21.5178 37.2425 21.7994 37.8483 21.9211 38.5384L21.9916 38.938C22.1133 39.6282 22.0569 40.2998 21.8225 40.9529C21.5859 41.5939 21.2009 42.1362 20.6674 42.5798C20.146 43.0213 19.5402 43.3029 18.85 43.4246L16.0348 43.921L16.8162 48.3527L13.0021 49.0252L10.8052 36.5658L17.4345 35.3968ZM15.5448 41.1422L17.2158 40.8475C17.5548 40.7878 17.802 40.6318 17.9573 40.3797C18.1104 40.1155 18.1625 39.8441 18.1134 39.5656L18.0749 39.3477C18.0258 39.0692 17.8852 38.8381 17.653 38.6543C17.4308 38.4562 17.1442 38.3882 16.793 38.4501L15.1221 38.7447L15.5448 41.1422Z" fill="#190E4F"/>
<path d="M26.3114 35.8729L22.7334 36.5038L22.2754 33.9065L25.8534 33.2756L26.3114 35.8729ZM28.1592 46.3526L24.5812 46.9835L22.9479 37.7206L26.5259 37.0897L28.1592 46.3526Z" fill="#190E4F"/>
<path d="M37.8316 33.3546C37.9555 34.0569 37.881 34.6256 37.6081 35.0608C37.3474 35.4938 36.9 35.8598 36.2661 36.1588C36.6379 36.3555 36.9384 36.6083 37.1677 36.9175C37.4091 37.2245 37.5618 37.5596 37.6259 37.9229C37.7198 38.4556 37.6428 38.9748 37.3949 39.4805C37.147 39.9861 36.768 40.4213 36.258 40.7859C35.7458 41.1383 35.1628 41.3722 34.509 41.4875L33.2558 41.7085C32.9046 41.7704 32.6539 41.8708 32.5036 42.0097C32.3512 42.1364 32.2888 42.2785 32.3166 42.4359C32.3486 42.6175 32.4458 42.744 32.6082 42.8152C32.7706 42.8865 33.0516 42.8869 33.4511 42.8164L36.4116 42.2944C37.3803 42.1236 38.1527 42.2558 38.7288 42.6911C39.3028 43.1142 39.6656 43.7556 39.8172 44.6153C39.9133 45.1602 39.8334 45.6986 39.5777 46.2306C39.3361 46.7726 38.9614 47.232 38.4536 47.6087C37.9478 47.9975 37.3741 48.2485 36.7323 48.3616L31.9193 49.2103C31.326 49.3149 30.774 49.1937 30.2634 48.8468C29.7649 48.4978 29.4623 48.0205 29.3555 47.4151L29.3395 47.3243C29.2648 46.9005 29.3296 46.4895 29.5341 46.0914C29.7364 45.6812 30.0153 45.3511 30.3708 45.1012C30.0724 44.9665 29.8199 44.7738 29.6134 44.5231C29.4069 44.2724 29.2759 43.9896 29.2203 43.6748C29.1413 43.2268 29.2272 42.7934 29.478 42.3746C29.7409 41.9537 30.0977 41.6411 30.5486 41.4368C30.0757 41.233 29.679 40.9659 29.3586 40.6353C29.0381 40.3048 28.8405 39.9277 28.7658 39.5039C28.6142 38.6442 28.8476 37.8789 29.4659 37.2081C30.0842 36.5372 31.0714 36.0823 32.4276 35.8431L32.9361 35.7535C33.372 35.6766 33.778 35.6425 34.154 35.6511C34.5608 35.2672 34.8365 34.919 34.9811 34.6063C35.1236 34.2816 35.1778 34.0223 35.1436 33.8286L37.8316 33.3546ZM33.0683 37.5654C32.7535 37.6209 32.5074 37.7829 32.33 38.0514C32.1626 38.3056 32.1067 38.5902 32.1622 38.905C32.2177 39.2198 32.3687 39.4741 32.6151 39.6679C32.8714 39.8474 33.157 39.9094 33.4719 39.8539C33.7867 39.7984 34.0278 39.6435 34.1952 39.3892C34.3726 39.1208 34.4335 38.8291 34.378 38.5143C34.3225 38.1995 34.1665 37.9523 33.9102 37.7728C33.6638 37.579 33.3831 37.5099 33.0683 37.5654ZM33.0245 45.4947C32.7702 45.5395 32.5651 45.6506 32.4091 45.828C32.2652 46.0031 32.2114 46.1937 32.2477 46.3995C32.284 46.6053 32.3997 46.766 32.5948 46.8814C32.8042 47.0068 33.036 47.047 33.2903 47.0022L35.8875 46.5442C36.1418 46.4994 36.3409 46.3894 36.4848 46.2142C36.6408 46.0369 36.7006 45.8453 36.6644 45.6394C36.6281 45.4336 36.5052 45.268 36.2958 45.1426C36.1007 45.0272 35.876 44.9919 35.6217 45.0367L33.0245 45.4947Z" fill="#190E4F"/>
<path d="M48.8107 31.4187C48.9345 32.121 48.86 32.6897 48.5872 33.1248C48.3264 33.5578 47.8791 33.9239 47.2452 34.2229C47.6169 34.4196 47.9174 34.6724 48.1467 34.9816C48.3881 35.2886 48.5409 35.6237 48.6049 35.987C48.6989 36.5197 48.6219 37.0389 48.3739 37.5446C48.126 38.0502 47.747 38.4854 47.237 38.85C46.7249 39.2024 46.1419 39.4363 45.488 39.5516L44.2348 39.7726C43.8837 39.8345 43.633 39.9349 43.4827 40.0738C43.3302 40.2005 43.2679 40.3426 43.2957 40.5C43.3277 40.6816 43.4249 40.8081 43.5873 40.8793C43.7496 40.9506 44.0306 40.951 44.4302 40.8805L47.3907 40.3585C48.3593 40.1877 49.1317 40.3199 49.7079 40.7552C50.2819 41.1783 50.6447 41.8197 50.7963 42.6794C50.8923 43.2243 50.8125 43.7627 50.5567 44.2947C50.3152 44.8367 49.9405 45.2961 49.4326 45.6728C48.9269 46.0616 48.3531 46.3126 47.7114 46.4257L42.8984 47.2744C42.305 47.379 41.7531 47.2578 41.2425 46.9109C40.7439 46.5618 40.4413 46.0846 40.3346 45.4792L40.3185 45.3884C40.2438 44.9646 40.3087 44.5536 40.5132 44.1555C40.7155 43.7453 40.9944 43.4152 41.3498 43.1653C41.0514 43.0306 40.7989 42.8379 40.5924 42.5872C40.3859 42.3365 40.2549 42.0537 40.1994 41.7389C40.1204 41.2909 40.2063 40.8575 40.4571 40.4387C40.7199 40.0178 41.0768 39.7052 41.5277 39.5009C41.0548 39.2971 40.6581 39.03 40.3376 38.6994C40.0172 38.3689 39.8196 37.9918 39.7449 37.568C39.5933 36.7083 39.8266 35.943 40.445 35.2722C41.0633 34.6013 42.0505 34.1464 43.4066 33.9072L43.9152 33.8176C44.3511 33.7407 44.757 33.7066 45.1331 33.7152C45.5398 33.3313 45.8155 32.9831 45.9601 32.6704C46.1026 32.3457 46.1568 32.0864 46.1226 31.8927L48.8107 31.4187ZM44.0474 35.6295C43.7326 35.685 43.4865 35.847 43.3091 36.1155C43.1417 36.3697 43.0857 36.6543 43.1412 36.9691C43.1967 37.2839 43.3477 37.5382 43.5941 37.732C43.8505 37.9115 44.1361 37.9735 44.4509 37.918C44.7657 37.8625 45.0068 37.7076 45.1742 37.4533C45.3516 37.1848 45.4126 36.8932 45.3571 36.5784C45.3015 36.2636 45.1456 36.0164 44.8892 35.8369C44.6428 35.6431 44.3622 35.574 44.0474 35.6295ZM44.0035 43.5588C43.7493 43.6036 43.5441 43.7147 43.3881 43.892C43.2442 44.0672 43.1904 44.2578 43.2267 44.4636C43.263 44.6694 43.3787 44.8301 43.5739 44.9455C43.7833 45.0709 44.0151 45.1111 44.2694 45.0663L46.8666 44.6083C47.1209 44.5635 47.3199 44.4535 47.4638 44.2783C47.6198 44.101 47.6797 43.9094 47.6434 43.7035C47.6071 43.4977 47.4843 43.3321 47.2749 43.2067C47.0798 43.0913 46.8551 43.056 46.6008 43.1008L44.0035 43.5588Z" fill="#190E4F"/>
<path d="M53.3954 31.0972L49.8174 31.7281L49.3594 29.1309L52.9374 28.5L53.3954 31.0972ZM55.2433 41.5769L51.6653 42.2078L50.032 32.945L53.61 32.3141L55.2433 41.5769Z" fill="#190E4F"/>
<path d="M60.3834 30.9138C61.3157 30.7494 62.1469 30.7901 62.8769 31.0359C63.6169 31.2675 64.218 31.6671 64.6801 32.2348C65.1544 32.8004 65.463 33.4888 65.6061 34.3001L65.8046 35.4262L59.7565 36.4926L59.9103 37.3644C59.9829 37.7761 60.1655 38.0685 60.4582 38.2416C60.763 38.4126 61.1213 38.4618 61.533 38.3892C61.9567 38.3145 62.2552 38.1307 62.4283 37.838C62.6114 37.5311 62.6624 37.1476 62.5812 36.6874L65.905 36.1014C66.0267 36.7916 65.955 37.4472 65.69 38.0682C65.437 38.6871 64.9943 39.2208 64.3618 39.6695C63.7392 40.1038 62.9618 40.4032 62.0294 40.5676L61.757 40.6157C60.7883 40.7865 59.8856 40.7646 59.0487 40.5501C58.2219 40.3214 57.5246 39.9075 56.9571 39.3084C56.3995 38.6951 56.0374 37.9162 55.8709 36.9718L55.7716 36.4087C55.6051 35.4643 55.6679 34.6167 55.96 33.8661C56.2621 33.1012 56.7575 32.477 57.4463 31.9935C58.133 31.4978 58.9607 31.1646 59.9293 30.9938L60.3834 30.9138ZM60.4621 33.1659C60.111 33.2278 59.8367 33.4072 59.6394 33.7042C59.44 33.9891 59.3712 34.3071 59.4331 34.6582L59.4779 34.9125L61.9843 34.4705L61.9395 34.2163C61.8776 33.8651 61.7042 33.5898 61.4193 33.3904C61.1323 33.1788 60.8133 33.1039 60.4621 33.1659Z" fill="#190E4F"/>
<path d="M70.9101 29.0576C71.4913 28.9551 72.1017 28.9474 72.7412 29.0344C73.3908 29.1071 73.9545 29.2949 74.4324 29.5976C74.9102 29.9004 75.1961 30.3182 75.2901 30.8509C75.3093 30.9599 75.3214 31.0639 75.3264 31.1629C75.3292 31.2498 75.3327 31.3053 75.337 31.3296L72.3584 31.8548C72.3071 31.5642 72.1376 31.3818 71.8499 31.3077C71.5722 31.2194 71.2698 31.204 70.9429 31.2616C70.0469 31.4196 69.6298 31.6742 69.6917 32.0253C69.7302 32.2433 69.89 32.3712 70.1714 32.4089C70.4627 32.4325 70.9295 32.4251 71.572 32.3867C72.4124 32.3384 73.1118 32.3399 73.6702 32.3913C74.2407 32.4405 74.7631 32.6418 75.2374 32.9951C75.7217 33.3342 76.0343 33.9033 76.1752 34.7025C76.3759 35.8406 76.1044 36.7437 75.3607 37.4117C74.6292 38.0775 73.658 38.5172 72.4472 38.7307L71.5027 38.8972C70.8246 39.0168 70.1587 39.0281 69.5049 38.9311C68.861 38.8199 68.307 38.5806 67.8426 38.213C67.3783 37.8454 67.0906 37.3468 66.9796 36.7172L66.9508 36.5537C66.938 36.4811 66.9344 36.4255 66.9401 36.387L69.8824 35.8682L69.8953 35.9409C69.9572 36.292 70.1583 36.5125 70.4988 36.6023C70.8371 36.68 71.2121 36.6825 71.6238 36.6099C71.987 36.5459 72.3257 36.4487 72.6398 36.3184C72.966 36.186 73.1088 36.0047 73.0683 35.7747C73.0277 35.5446 72.8607 35.4117 72.5673 35.3761C72.2717 35.3283 71.7945 35.3126 71.1357 35.3289C70.3437 35.3687 69.6614 35.3579 69.0887 35.2966C68.5161 35.2352 67.9937 35.0339 67.5215 34.6927C67.0594 34.3372 66.7621 33.7842 66.6297 33.0334C66.5059 32.3312 66.6153 31.7126 66.9579 31.1778C67.3106 30.6287 67.7946 30.1875 68.41 29.8543C69.0233 29.5089 69.669 29.2765 70.347 29.1569L70.9101 29.0576Z" fill="#190E4F"/>
<path d="M26.8166 53.6869C27.3978 53.5844 28.0081 53.5767 28.6477 53.6637C29.2973 53.7364 29.861 53.9242 30.3388 54.2269C30.8167 54.5297 31.1026 54.9475 31.1966 55.4802C31.2158 55.5892 31.2279 55.6932 31.2328 55.7922C31.2357 55.8791 31.2392 55.9346 31.2435 55.9589L28.2649 56.4841C28.2136 56.1935 28.0441 56.0111 27.7564 55.937C27.4786 55.8486 27.1763 55.8333 26.8494 55.8909C25.9534 56.0489 25.5363 56.3035 25.5982 56.6546C25.6367 56.8726 25.7965 57.0005 26.0779 57.0382C26.3692 57.0618 26.836 57.0544 27.4785 57.016C28.3189 56.9677 29.0183 56.9692 29.5767 57.0206C30.1472 57.0698 30.6696 57.2711 31.1439 57.6244C31.6282 57.9635 31.9408 58.5326 32.0817 59.3318C32.2824 60.4699 32.0109 61.373 31.2672 62.041C30.5357 62.7068 29.5645 63.1465 28.3536 63.36L27.4092 63.5265C26.7311 63.6461 26.0652 63.6574 25.4114 63.5604C24.7675 63.4492 24.2134 63.2099 23.7491 62.8423C23.2848 62.4747 22.9971 61.9761 22.8861 61.3465L22.8573 61.183C22.8445 61.1103 22.8409 61.0548 22.8466 61.0163L25.7889 60.4975L25.8017 60.5702C25.8636 60.9213 26.0648 61.1418 26.4053 61.2316C26.7436 61.3092 27.1186 61.3118 27.5302 61.2392C27.8935 61.1752 28.2322 61.078 28.5463 60.9477C28.8725 60.8153 29.0153 60.634 28.9748 60.404C28.9342 60.1739 28.7672 60.041 28.4738 60.0054C28.1782 59.9576 27.701 59.9419 27.0422 59.9582C26.2502 59.998 25.5678 59.9872 24.9952 59.9258C24.4226 59.8645 23.9002 59.6632 23.428 59.322C22.9658 58.9665 22.6686 58.4134 22.5362 57.6627C22.4124 56.9605 22.5218 56.3419 22.8644 55.807C23.2171 55.258 23.7011 54.8168 24.3165 54.4836C24.9298 54.1382 25.5755 53.9058 26.2535 53.7862L26.8166 53.6869Z" fill="#190E4F"/>
<path d="M36.5036 52.1661L38.6831 51.7818L39.1379 54.3609L36.9584 54.7452L37.5637 58.1779C37.6491 58.6622 37.7986 58.9792 38.0122 59.1288C38.2359 59.2641 38.5051 59.304 38.8199 59.2485C38.9652 59.2229 39.1497 59.1717 39.3733 59.0948C39.6069 59.0036 39.785 58.9161 39.9075 58.832L40.2662 60.8662C40.0091 61.0364 39.6387 61.2016 39.1551 61.3618C38.6714 61.522 38.254 61.633 37.9029 61.6949C36.8374 61.8828 35.9798 61.8343 35.3303 61.5493C34.6929 61.2622 34.292 60.6524 34.1276 59.7201L33.3622 55.3793L32.3451 55.5586L31.8904 52.9795L33.0528 52.7746L33.784 49.5931L35.9816 49.2056L36.5036 52.1661Z" fill="#190E4F"/>
<path d="M44.9161 50.4955C45.8243 50.3353 46.6768 50.391 47.4737 50.6625C48.2807 50.9197 48.9519 51.3632 49.4874 51.9929C50.035 52.6204 50.3878 53.3822 50.5458 54.2782L50.6131 54.6596C50.7732 55.5678 50.7033 56.4103 50.4033 57.1873C50.1155 57.9622 49.6364 58.6085 48.9661 59.1262C48.3079 59.6418 47.5248 59.9796 46.6167 60.1397L46.0355 60.2422C45.1274 60.4023 44.2698 60.3538 43.4629 60.0966C42.666 59.8251 41.9937 59.3756 41.446 58.748C40.9105 58.1183 40.5638 57.3555 40.4058 56.4595L40.3385 56.078C40.1805 55.182 40.2455 54.3466 40.5333 53.5717C40.8333 52.7947 41.3124 52.1484 41.9705 51.6329C42.6387 51.1031 43.4268 50.7581 44.3349 50.598L44.9161 50.4955ZM45.013 52.7444C44.6619 52.8063 44.3877 52.9857 44.1903 53.2827C43.9909 53.5676 43.9221 53.8856 43.984 54.2367L44.4612 56.9429C44.5231 57.2941 44.6976 57.5754 44.9846 57.787C45.2694 57.9865 45.5874 58.0552 45.9386 57.9933C46.2897 57.9314 46.565 57.758 46.7645 57.4731C46.9618 57.1762 47.0295 56.8521 46.9676 56.501L46.4904 53.7948C46.4285 53.4436 46.2551 53.1683 45.9703 52.9689C45.6833 52.7573 45.3642 52.6825 45.013 52.7444Z" fill="#190E4F"/>
<path d="M56.6538 48.4258C57.4529 48.2849 58.1099 48.4 58.6248 48.7712C59.1497 49.1281 59.4804 49.694 59.6171 50.4689L59.6715 50.7777L59.7569 51.4743L59.8006 51.9347L56.8583 52.4535L56.7815 52.0176C56.7366 51.7634 56.6206 51.5653 56.4333 51.4236C56.2559 51.2676 56.0643 51.2077 55.8585 51.244C55.6406 51.2824 55.4689 51.4064 55.3435 51.6157C55.2281 51.8109 55.1928 52.0356 55.2376 52.2899L56.2881 58.2471L52.7827 58.8652L51.1462 49.5842L53.8343 49.1102L54.4708 50.3838C54.5179 50.2257 54.623 50.0074 54.7861 49.7289C54.9492 49.4505 55.1893 49.1834 55.5063 48.9278C55.8233 48.6721 56.2057 48.5048 56.6538 48.4258Z" fill="#190E4F"/>
<path d="M65.2965 46.9019C66.2289 46.7375 67.06 46.7782 67.79 47.024C68.53 47.2556 69.1311 47.6552 69.5932 48.2229C70.0675 48.7885 70.3762 49.4769 70.5192 50.2882L70.7178 51.4143L64.6697 52.4807L64.8234 53.3525C64.896 53.7642 65.0786 54.0566 65.3713 54.2297C65.6762 54.4007 66.0344 54.4499 66.4461 54.3773C66.8699 54.3026 67.1683 54.1188 67.3414 53.8261C67.5245 53.5192 67.5755 53.1357 67.4944 52.6755L70.8181 52.0895C70.9398 52.7797 70.8681 53.4353 70.6031 54.0563C70.3502 54.6752 69.9074 55.2089 69.2749 55.6576C68.6524 56.0919 67.8749 56.3913 66.9426 56.5557L66.6701 56.6038C65.7015 56.7746 64.7987 56.7527 63.9619 56.5382C63.135 56.3095 62.4378 55.8956 61.8702 55.2965C61.3126 54.6832 60.9506 53.9043 60.784 52.9599L60.6847 52.3968C60.5182 51.4524 60.581 50.6048 60.8731 49.8542C61.1752 49.0893 61.6707 48.4651 62.3595 47.9816C63.0461 47.4859 63.8738 47.1527 64.8425 46.9819L65.2965 46.9019ZM65.3753 49.154C65.0241 49.2159 64.7499 49.3953 64.5526 49.6923C64.3531 49.9772 64.2843 50.2952 64.3462 50.6463L64.3911 50.9006L66.8975 50.4586L66.8526 50.2044C66.7907 49.8532 66.6173 49.5779 66.3325 49.3785C66.0455 49.1669 65.7264 49.092 65.3753 49.154Z" fill="#190E4F"/>
</svg>
